<?xml version="1.0" standalone="no"?>
<!DOCTYPE svg PUBLIC "-//W3C//DTD SVG 20010904//EN"
 "http://www.w3.org/TR/2001/REC-SVG-20010904/DTD/svg10.dtd">
<svg version="1.0" xmlns="http://www.w3.org/2000/svg"
 width="16.000000pt" height="16.000000pt" viewBox="0 0 16.000000 16.000000"
 preserveAspectRatio="xMidYMid meet">
<metadata>
Created by potrace 1.11, written by Peter Selinger 2001-2013
</metadata>
<g transform="translate(0.000000,16.000000) scale(0.008333,-0.008333)"
fill="#000000" stroke="none">
<path d="M812 1883 c-37 -13 -88 -31 -114 -39 -48 -15 -123 -69 -168 -120 -48
-55 -121 -173 -164 -266 -52 -109 -78 -200 -105 -358 -21 -128 -26 -183 -46
-485 -9 -141 -14 -167 -46 -216 -31 -49 -91 -89 -133 -89 -20 0 -26 -5 -26
-21 0 -18 5 -20 38 -16 53 7 73 16 109 50 l32 30 -6 -34 c-2 -19 -13 -59 -23
-89 -11 -32 -15 -59 -10 -64 28 -28 67 72 85 214 4 30 20 96 36 145 16 50 36
123 45 163 l16 73 20 -40 c38 -78 143 -157 268 -204 64 -24 234 -63 288 -66 7
-1 10 -6 7 -11 -4 -6 -10 -8 -15 -5 -7 4 -290 -416 -290 -430 0 -3 10 -5 23
-5 18 0 44 34 132 172 61 94 119 182 130 195 l20 24 -3 -195 c-3 -192 -2 -196
18 -196 22 0 21 -12 23 224 l1 129 21 -25 c12 -14 57 -74 101 -134 131 -182
142 -194 179 -194 l32 0 -46 48 c-49 50 -278 360 -279 377 0 5 -9 12 -19 16
-10 4 38 7 107 8 192 1 273 29 357 125 37 42 66 93 95 166 l10 25 8 -25 c4
-14 13 -56 20 -95 17 -98 46 -206 75 -274 19 -47 22 -64 15 -97 -11 -46 -2
-58 52 -72 28 -8 38 -7 42 3 3 9 18 11 49 8 66 -8 153 41 127 72 -9 11 -17 10
-47 -11 -20 -13 -48 -24 -64 -24 -47 0 -128 82 -99 100 10 6 11 54 7 201 -7
233 -15 320 -37 444 -5 28 -12 66 -15 85 -11 64 -55 228 -81 302 -65 182 -170
330 -279 393 -49 29 -138 55 -198 59 -32 2 -55 11 -83 34 -53 43 -103 47 -192
15z m155 -37 c7 -7 -117 -12 -135 -5 -27 10 69 27 102 18 16 -5 31 -10 33 -13z
m-202 -45 c3 -6 14 -8 24 -6 10 2 23 0 30 -4 6 -4 -7 -8 -31 -9 -24 -1 -56 -4
-73 -8 l-30 -5 30 20 c34 23 41 25 50 12z m244 -22 c12 -8 6 -9 -24 -5 -22 3
-50 6 -62 6 -13 0 -23 4 -23 8 0 11 89 4 109 -9z m228 -27 c171 -82 301 -324
367 -684 14 -73 28 -160 31 -193 4 -33 8 -71 11 -85 2 -14 6 -92 10 -175 l5
-150 -45 130 c-56 160 -76 268 -72 400 6 174 -31 329 -105 437 -21 32 -39 62
-39 67 0 18 -100 158 -141 198 -24 23 -64 53 -89 68 -39 22 -41 25 -15 19 17
-4 53 -18 82 -32z m-98 -17 c30 -15 127 -95 116 -95 -3 0 -27 16 -52 35 -24
19 -67 44 -94 56 -27 13 -49 26 -49 31 0 8 33 -3 79 -27z m-83 -26 c115 -43
280 -183 325 -276 24 -49 85 -287 93 -363 3 -28 8 -56 12 -63 5 -8 4 -9 -3 -2
-8 8 -30 62 -38 95 -1 3 -6 16 -12 30 -6 14 -20 49 -32 77 -90 227 -230 401
-382 475 -40 20 -91 39 -112 43 -20 4 -39 10 -42 14 -7 13 139 -11 191 -30z
m-196 -14 c125 -29 209 -75 293 -161 113 -115 197 -279 301 -585 l36 -107 -16
-53 c-50 -168 -141 -263 -277 -290 -61 -12 -219 -14 -297 -4 -310 38 -498 148
-535 310 -14 57 -13 62 11 210 8 50 17 104 20 120 2 17 9 55 15 85 6 30 13 71
16 90 8 50 51 198 73 247 22 51 83 97 159 120 31 10 58 21 59 25 6 13 72 9
142 -7z m-469 -366 c-10 -46 -22 -109 -26 -139 -10 -77 -25 -108 -18 -40 7 83
21 159 39 218 25 78 27 57 5 -39z m-87 -449 c-3 -69 -6 -93 -29 -180 l-14 -55
5 105 c5 102 14 209 20 240 1 8 4 26 5 40 4 45 15 -83 13 -150z m1386 -625
c10 -12 10 -15 -4 -15 -9 0 -16 7 -16 15 0 8 2 15 4 15 2 0 9 -7 16 -15z"/>
<path d="M1037 1478 c-4 -30 -5 -31 -12 -10 -9 26 -22 29 -27 5 -3 -16 -6 -15
-23 5 -23 26 -37 29 -28 5 6 -17 5 -17 -14 0 -32 28 -36 6 -4 -27 25 -28 29
-41 35 -116 9 -116 15 -147 37 -201 42 -97 123 -98 173 0 23 44 30 118 16 169
-12 47 -87 132 -115 132 -11 0 -15 10 -15 35 0 44 -17 46 -23 3z m16 -74 c71
-36 96 -72 104 -147 5 -50 5 -51 -13 -35 -27 24 -65 31 -98 18 -16 -6 -30 -9
-32 -8 -1 2 -5 45 -9 96 -8 101 -7 103 48 76z"/>
<path d="M715 1448 l-7 -31 -18 23 -17 23 -8 -24 c-6 -20 -8 -21 -12 -6 -7 26
-23 21 -23 -7 0 -36 -13 -39 -46 -11 -15 13 -32 21 -37 18 -5 -3 0 -13 12 -22
21 -16 22 -23 18 -131 -6 -142 -1 -173 30 -204 26 -26 91 -43 148 -38 68 6
101 84 79 188 -14 72 -33 110 -75 159 -25 28 -29 40 -24 65 4 18 3 30 -3 30
-6 0 -14 -14 -17 -32z m15 -97 c21 -22 45 -61 54 -87 24 -71 21 -80 -15 -50
-39 33 -82 34 -126 0 l-33 -25 5 56 c7 64 19 102 42 127 23 25 31 23 73 -21z"/>
<path d="M1090 843 c-15 -41 -24 -55 -51 -75 -40 -30 -60 -32 -298 -25 -44 2
-54 -1 -57 -15 -2 -14 5 -18 29 -19 18 -1 43 -3 57 -5 14 -2 68 -5 120 -6 141
-3 205 32 238 129 6 17 8 34 5 37 -14 14 -34 4 -43 -21z"/>
</g>
</svg>
